<?xml version="1.0" encoding="UTF-8"?>
<svg width="256" height="256" viewBox="0 0 256 256" xmlns="http://www.w3.org/2000/svg">
    <rect width="256" height="256" fill="none"/>
    <path d="M208,88H48a8,8,0,0,0-8,8V208a8,8,0,0,0,8,8H208a8,8,0,0,0,8-8V96A8,8,0,0,0,208,88Zm-8,112H56V104H200ZM80,88a8,8,0,0,1-8-8V56H64V80a8,8,0,0,1-16,0V56a16,16,0,0,1,16-16h16a16,16,0,0,1,16,16V80A8,8,0,0,1,80,88Zm112,0a8,8,0,0,1-8-8V56H168V80a8,8,0,0,1-16,0V56a16,16,0,0,1,16-16h16a16,16,0,0,1,16,16V80A8,8,0,0,1,192,88Z" fill="#4F46E5"/>
</svg> 
